<?xml version="1.0" encoding="utf-8"?>
<!-- Svg Vector Icons : http://www.onlinewebfonts.com/icon -->
<!DOCTYPE svg PUBLIC "-//W3C//DTD SVG 1.1//EN" "http://www.w3.org/Graphics/SVG/1.1/DTD/svg11.dtd">
<svg version="1.1" xmlns="http://www.w3.org/2000/svg" xmlns:xlink="http://www.w3.org/1999/xlink" x="0px" y="0px" viewBox="0 0 1000 1000" enable-background="new 0 0 1000 1000" xml:space="preserve">
<metadata> Svg Vector Icons : http://www.onlinewebfonts.com/icon </metadata>
<g><path d="M689.3,644.4c12.1,0,22.5,4.4,31.3,13.2l126,126c8.8,8.8,13.2,19.4,13.2,31.7c0,12.1-4.4,22.5-13.2,31.3s-19.3,13.2-31.3,13.2c-12.3,0-22.9-4.4-31.7-13.2l-126-126c-8.6-8.6-12.9-19.1-12.9-31.7c0-12.3,4.3-22.8,13.1-31.5S677,644.4,689.3,644.4L689.3,644.4z M311,644.4c12.3,0,22.8,4.4,31.5,13.1c8.7,8.7,13.1,19.2,13.1,31.5c0,12.3-4.4,22.9-13.2,31.7l-126,126c-8.8,8.8-19.3,13.2-31.3,13.2c-12.3,0-22.8-4.4-31.5-13.1c-8.7-8.7-13.1-19.2-13.1-31.5c0-12.5,4.3-23.1,12.9-31.7l126-126C288.2,648.8,298.7,644.4,311,644.4L311,644.4z M54.5,455.5h178.2c12.3,0,22.8,4.3,31.5,13.1c8.7,8.7,13.1,19.2,13.1,31.5c0,12.3-4.4,22.8-13.1,31.5c-8.7,8.7-19.2,13.1-31.5,13.1H54.5c-12.3,0-22.8-4.3-31.5-13.1S10,512.3,10,500c0-12.3,4.4-22.8,13.1-31.5C31.8,459.8,42.2,455.5,54.5,455.5L54.5,455.5z M500,722.7c12.3,0,22.8,4.4,31.5,13.1c8.7,8.7,13.1,19.2,13.1,31.5v178.2c0,12.3-4.3,22.8-13.1,31.5c-8.7,8.7-19.2,13.1-31.5,13.1c-12.3,0-22.8-4.4-31.5-13.1c-8.7-8.7-13.1-19.2-13.1-31.5V767.3c0-12.3,4.3-22.8,13.1-31.5C477.2,727.1,487.7,722.7,500,722.7z M185.1,140.2c12.1,0,22.5,4.4,31.3,13.2l126,126c8.8,8.8,13.2,19.3,13.2,31.3c0,12.3-4.4,22.8-13.1,31.5c-8.7,8.7-19.2,13.1-31.5,13.1c-12.5,0-23.1-4.3-31.7-12.9l-126-126c-8.6-8.6-12.9-19.1-12.9-31.7c0-12.3,4.4-22.8,13.1-31.5C162.3,144.5,172.8,140.2,185.1,140.2L185.1,140.2z M767.3,455.5h178.2c12.3,0,22.8,4.3,31.5,13.1c8.7,8.7,13.1,19.2,13.1,31.5c0,12.3-4.3,22.8-13.1,31.5s-19.2,13.1-31.5,13.1H767.3c-12.3,0-22.8-4.3-31.5-13.1c-8.7-8.7-13.1-19.2-13.1-31.5c0-12.3,4.4-22.8,13.1-31.5C744.5,459.8,755,455.5,767.3,455.5z M500,10c12.3,0,22.8,4.4,31.5,13.1c8.7,8.7,13.1,19.2,13.1,31.5v178.2c0,12.3-4.3,22.8-13.1,31.5c-8.7,8.7-19.2,13.1-31.5,13.1c-12.3,0-22.8-4.4-31.5-13.1c-8.7-8.7-13.1-19.2-13.1-31.5V54.5c0-12.3,4.3-22.8,13.1-31.5C477.2,14.4,487.7,10,500,10z M815.3,140.2c12.1,0,22.5,4.4,31.3,13.2c8.8,8.8,13.2,19.3,13.2,31.3c0,12.3-4.4,22.9-13.2,31.7l-126,126c-8.6,8.6-19,12.9-31.3,12.9c-12.8,0-23.4-4.2-31.8-12.7c-8.5-8.5-12.7-19.1-12.7-31.9c0-12.3,4.3-22.7,12.9-31.3l126-126C792.4,144.6,803,140.2,815.3,140.2L815.3,140.2z"/></g>
</svg>